<svg xmlns="http://www.w3.org/2000/svg" xmlns:xlink="http://www.w3.org/1999/xlink" version="1.1" class="marks" width="710" height="384" viewBox="0 0 710 384"><rect width="710" height="384" fill="white"/><g fill="none" stroke-miterlimit="10" transform="translate(48,34)"><g class="mark-group role-frame root" role="graphics-object" aria-roledescription="group mark container"><g transform="translate(0,0)"><path class="background" aria-hidden="true" d="M0.5,0.5h500v300h-500Z" stroke="#ddd"/><g><g class="mark-group role-axis" aria-hidden="true"><g transform="translate(0.5,310.5)"><path class="background" aria-hidden="true" d="M0,0h0v0h0Z" pointer-events="none"/><g><g class="mark-rule role-axis-grid" pointer-events="none"><line transform="translate(0,-310)" x2="0" y2="300" stroke="#ddd" stroke-width="1" opacity="1"/><line transform="translate(45,-310)" x2="0" y2="300" stroke="#ddd" stroke-width="1" opacity="1"/><line transform="translate(91,-310)" x2="0" y2="300" stroke="#ddd" stroke-width="1" opacity="1"/><line transform="translate(136,-310)" x2="0" y2="300" stroke="#ddd" stroke-width="1" opacity="1"/><line transform="translate(182,-310)" x2="0" y2="300" stroke="#ddd" stroke-width="1" opacity="1"/><line transform="translate(227,-310)" x2="0" y2="300" stroke="#ddd" stroke-width="1" opacity="1"/><line transform="translate(273,-310)" x2="0" y2="300" stroke="#ddd" stroke-width="1" opacity="1"/><line transform="translate(318,-310)" x2="0" y2="300" stroke="#ddd" stroke-width="1" opacity="1"/><line transform="translate(364,-310)" x2="0" y2="300" stroke="#ddd" stroke-width="1" opacity="1"/><line transform="translate(409,-310)" x2="0" y2="300" stroke="#ddd" stroke-width="1" opacity="1"/><line transform="translate(455,-310)" x2="0" y2="300" stroke="#ddd" stroke-width="1" opacity="1"/><line transform="translate(500,-310)" x2="0" y2="300" stroke="#ddd" stroke-width="1" opacity="1"/></g></g><path class="foreground" aria-hidden="true" d="" pointer-events="none" display="none"/></g></g><g class="mark-group role-axis" aria-hidden="true"><g transform="translate(-9.5,0.5)"><path class="background" aria-hidden="true" d="M0,0h0v0h0Z" pointer-events="none"/><g><g class="mark-rule role-axis-grid" pointer-events="none"><line transform="translate(10,277)" x2="500" y2="0" stroke="#ddd" stroke-width="1" opacity="1"/><line transform="translate(10,231)" x2="500" y2="0" stroke="#ddd" stroke-width="1" opacity="1"/><line transform="translate(10,185)" x2="500" y2="0" stroke="#ddd" stroke-width="1" opacity="1"/><line transform="translate(10,138)" x2="500" y2="0" stroke="#ddd" stroke-width="1" opacity="1"/><line transform="translate(10,92)" x2="500" y2="0" stroke="#ddd" stroke-width="1" opacity="1"/><line transform="translate(10,46)" x2="500" y2="0" stroke="#ddd" stroke-width="1" opacity="1"/><line transform="translate(10,0)" x2="500" y2="0" stroke="#ddd" stroke-width="1" opacity="1"/></g></g><path class="foreground" aria-hidden="true" d="" pointer-events="none" display="none"/></g></g><g class="mark-group role-axis" role="graphics-symbol" aria-roledescription="axis" aria-label="X-axis titled 'time/steps' for a linear scale with values from 0 to 5,500,000"><g transform="translate(0.5,310.5)"><path class="background" aria-hidden="true" d="M0,0h0v0h0Z" pointer-events="none"/><g><g class="mark-rule role-axis-tick" pointer-events="none"><line transform="translate(0,0)" x2="0" y2="5" stroke="#888" stroke-width="1" opacity="1"/><line transform="translate(45,0)" x2="0" y2="5" stroke="#888" stroke-width="1" opacity="1"/><line transform="translate(91,0)" x2="0" y2="5" stroke="#888" stroke-width="1" opacity="1"/><line transform="translate(136,0)" x2="0" y2="5" stroke="#888" stroke-width="1" opacity="1"/><line transform="translate(182,0)" x2="0" y2="5" stroke="#888" stroke-width="1" opacity="1"/><line transform="translate(227,0)" x2="0" y2="5" stroke="#888" stroke-width="1" opacity="1"/><line transform="translate(273,0)" x2="0" y2="5" stroke="#888" stroke-width="1" opacity="1"/><line transform="translate(318,0)" x2="0" y2="5" stroke="#888" stroke-width="1" opacity="1"/><line transform="translate(364,0)" x2="0" y2="5" stroke="#888" stroke-width="1" opacity="1"/><line transform="translate(409,0)" x2="0" y2="5" stroke="#888" stroke-width="1" opacity="1"/><line transform="translate(455,0)" x2="0" y2="5" stroke="#888" stroke-width="1" opacity="1"/><line transform="translate(500,0)" x2="0" y2="5" stroke="#888" stroke-width="1" opacity="1"/></g><g class="mark-text role-axis-label" pointer-events="none"><text text-anchor="start" transform="translate(0,15)" font-family="sans-serif" font-size="10px" fill="#000" opacity="1">0</text><text text-anchor="middle" transform="translate(45.45454545454545,15)" font-family="sans-serif" font-size="10px" fill="#000" opacity="0">500,000</text><text text-anchor="middle" transform="translate(90.9090909090909,15)" font-family="sans-serif" font-size="10px" fill="#000" opacity="1">1,000,000</text><text text-anchor="middle" transform="translate(136.36363636363635,15)" font-family="sans-serif" font-size="10px" fill="#000" opacity="0">1,500,000</text><text text-anchor="middle" transform="translate(181.8181818181818,15)" font-family="sans-serif" font-size="10px" fill="#000" opacity="1">2,000,000</text><text text-anchor="middle" transform="translate(227.27272727272725,15)" font-family="sans-serif" font-size="10px" fill="#000" opacity="0">2,500,000</text><text text-anchor="middle" transform="translate(272.7272727272727,15)" font-family="sans-serif" font-size="10px" fill="#000" opacity="1">3,000,000</text><text text-anchor="middle" transform="translate(318.1818181818182,15)" font-family="sans-serif" font-size="10px" fill="#000" opacity="0">3,500,000</text><text text-anchor="middle" transform="translate(363.6363636363636,15)" font-family="sans-serif" font-size="10px" fill="#000" opacity="1">4,000,000</text><text text-anchor="middle" transform="translate(409.0909090909091,15)" font-family="sans-serif" font-size="10px" fill="#000" opacity="0">4,500,000</text><text text-anchor="middle" transform="translate(454.5454545454545,15)" font-family="sans-serif" font-size="10px" fill="#000" opacity="1">5,000,000</text><text text-anchor="end" transform="translate(500,15)" font-family="sans-serif" font-size="10px" fill="#000" opacity="0">5,500,000</text></g><g class="mark-rule role-axis-domain" pointer-events="none"><line transform="translate(0,0)" x2="500" y2="0" stroke="#888" stroke-width="1" opacity="1"/></g><g class="mark-text role-axis-title" pointer-events="none"><text text-anchor="middle" transform="translate(250,32)" font-family="sans-serif" font-size="14px" font-weight="500" fill="#000" opacity="1">time/steps</text></g></g><path class="foreground" aria-hidden="true" d="" pointer-events="none" display="none"/></g></g><g class="mark-group role-axis" role="graphics-symbol" aria-roledescription="axis" aria-label="Y-axis for a linear scale with values from −500 to 6,000"><g transform="translate(-9.5,0.5)"><path class="background" aria-hidden="true" d="M0,0h0v0h0Z" pointer-events="none"/><g><g class="mark-rule role-axis-tick" pointer-events="none"><line transform="translate(0,277)" x2="-5" y2="0" stroke="#888" stroke-width="1" opacity="1"/><line transform="translate(0,231)" x2="-5" y2="0" stroke="#888" stroke-width="1" opacity="1"/><line transform="translate(0,185)" x2="-5" y2="0" stroke="#888" stroke-width="1" opacity="1"/><line transform="translate(0,138)" x2="-5" y2="0" stroke="#888" stroke-width="1" opacity="1"/><line transform="translate(0,92)" x2="-5" y2="0" stroke="#888" stroke-width="1" opacity="1"/><line transform="translate(0,46)" x2="-5" y2="0" stroke="#888" stroke-width="1" opacity="1"/><line transform="translate(0,0)" x2="-5" y2="0" stroke="#888" stroke-width="1" opacity="1"/></g><g class="mark-text role-axis-label" pointer-events="none"><text text-anchor="end" transform="translate(-7,279.92307692307696)" font-family="sans-serif" font-size="10px" fill="#000" opacity="1">0</text><text text-anchor="end" transform="translate(-7,233.76923076923075)" font-family="sans-serif" font-size="10px" fill="#000" opacity="1">1,000</text><text text-anchor="end" transform="translate(-7,187.6153846153846)" font-family="sans-serif" font-size="10px" fill="#000" opacity="1">2,000</text><text text-anchor="end" transform="translate(-7,141.46153846153848)" font-family="sans-serif" font-size="10px" fill="#000" opacity="1">3,000</text><text text-anchor="end" transform="translate(-7,95.3076923076923)" font-family="sans-serif" font-size="10px" fill="#000" opacity="1">4,000</text><text text-anchor="end" transform="translate(-7,49.15384615384615)" font-family="sans-serif" font-size="10px" fill="#000" opacity="1">5,000</text><text text-anchor="end" transform="translate(-7,3)" font-family="sans-serif" font-size="10px" fill="#000" opacity="1">6,000</text></g><g class="mark-rule role-axis-domain" pointer-events="none"><line transform="translate(0,300)" x2="0" y2="-300" stroke="#888" stroke-width="1" opacity="1"/></g></g><path class="foreground" aria-hidden="true" d="" pointer-events="none" display="none"/></g></g><g class="mark-symbol role-mark layer_0_marks" role="graphics-object" aria-roledescription="symbol mark container"><path aria-label="time/steps: 32768; legend_value: 1.52040914821; legend_name: collector/env_reward_mean; Timestep: 32768; Y value: 1.52040914821" role="graphics-symbol" aria-roledescription="circle" transform="translate(2.978909090909091,276.85290419315953)" d="M2.7386127875258306,0A2.7386127875258306,2.7386127875258306,0,1,1,-2.7386127875258306,0A2.7386127875258306,2.7386127875258306,0,1,1,2.7386127875258306,0" fill="#4c78a8" stroke-width="2" opacity="1"/><path aria-label="time/steps: 65536; legend_value: 5.87950736435; legend_name: collector/env_reward_mean; Timestep: 65536; Y value: 5.87950736435" role="graphics-symbol" aria-roledescription="circle" transform="translate(5.957818181818182,276.65171504472244)" d="M2.7386127875258306,0A2.7386127875258306,2.7386127875258306,0,1,1,-2.7386127875258306,0A2.7386127875258306,2.7386127875258306,0,1,1,2.7386127875258306,0" fill="#4c78a8" stroke-width="2" opacity="1"/><path aria-label="time/steps: 98304; legend_value: 16.5136951979; legend_name: collector/env_reward_mean; Timestep: 98304; Y value: 16.5136951979" role="graphics-symbol" aria-roledescription="circle" transform="translate(8.936727272727273,276.16090637548047)" d="M2.7386127875258306,0A2.7386127875258306,2.7386127875258306,0,1,1,-2.7386127875258306,0A2.7386127875258306,2.7386127875258306,0,1,1,2.7386127875258306,0" fill="#4c78a8" stroke-width="2" opacity="1"/><path aria-label="time/steps: 131072; legend_value: 47.3366245668; legend_name: collector/env_reward_mean; Timestep: 131072; Y value: 47.3366245668" role="graphics-symbol" aria-roledescription="circle" transform="translate(11.915636363636365,274.73830963537864)" d="M2.7386127875258306,0A2.7386127875258306,2.7386127875258306,0,1,1,-2.7386127875258306,0A2.7386127875258306,2.7386127875258306,0,1,1,2.7386127875258306,0" fill="#4c78a8" stroke-width="2" opacity="1"/><path aria-label="time/steps: 163840; legend_value: 103.830770542; legend_name: collector/env_reward_mean; Timestep: 163840; Y value: 103.830770542" role="graphics-symbol" aria-roledescription="circle" transform="translate(14.894545454545455,272.13088751343014)" d="M2.7386127875258306,0A2.7386127875258306,2.7386127875258306,0,1,1,-2.7386127875258306,0A2.7386127875258306,2.7386127875258306,0,1,1,2.7386127875258306,0" fill="#4c78a8" stroke-width="2" opacity="1"/><path aria-label="time/steps: 196608; legend_value: 174.96779915; legend_name: collector/env_reward_mean; Timestep: 196608; Y value: 174.96779915" role="graphics-symbol" aria-roledescription="circle" transform="translate(17.873454545454546,268.84764003922953)" d="M2.7386127875258306,0A2.7386127875258306,2.7386127875258306,0,1,1,-2.7386127875258306,0A2.7386127875258306,2.7386127875258306,0,1,1,2.7386127875258306,0" fill="#4c78a8" stroke-width="2" opacity="1"/><path aria-label="time/steps: 229376; legend_value: 211.451674587; legend_name: collector/env_reward_mean; Timestep: 229376; Y value: 211.451674587" role="graphics-symbol" aria-roledescription="circle" transform="translate(20.852363636363638,267.1637688652063)" d="M2.7386127875258306,0A2.7386127875258306,2.7386127875258306,0,1,1,-2.7386127875258306,0A2.7386127875258306,2.7386127875258306,0,1,1,2.7386127875258306,0" fill="#4c78a8" stroke-width="2" opacity="1"/><path aria-label="time/steps: 262144; legend_value: 243.288239768; legend_name: collector/env_reward_mean; Timestep: 262144; Y value: 243.288239768" role="graphics-symbol" aria-roledescription="circle" transform="translate(23.83127272727273,265.6943889337737)" d="M2.7386127875258306,0A2.7386127875258306,2.7386127875258306,0,1,1,-2.7386127875258306,0A2.7386127875258306,2.7386127875258306,0,1,1,2.7386127875258306,0" fill="#4c78a8" stroke-width="2" opacity="1"/><path aria-label="time/steps: 294912; legend_value: 261.33519778; legend_name: collector/env_reward_mean; Timestep: 294912; Y value: 261.33519778" role="graphics-symbol" aria-roledescription="circle" transform="translate(26.81018181818182,264.8614524101334)" d="M2.7386127875258306,0A2.7386127875258306,2.7386127875258306,0,1,1,-2.7386127875258306,0A2.7386127875258306,2.7386127875258306,0,1,1,2.7386127875258306,0" fill="#4c78a8" stroke-width="2" opacity="1"/><path aria-label="time/steps: 327680; legend_value: 261.241072524; legend_name: collector/env_reward_mean; Timestep: 327680; Y value: 261.241072524" role="graphics-symbol" aria-roledescription="circle" transform="translate(29.78909090909091,264.8657966527546)" d="M2.7386127875258306,0A2.7386127875258306,2.7386127875258306,0,1,1,-2.7386127875258306,0A2.7386127875258306,2.7386127875258306,0,1,1,2.7386127875258306,0" fill="#4c78a8" stroke-width="2" opacity="1"/><path aria-label="time/steps: 360448; legend_value: 266.584070012; legend_name: collector/env_reward_mean; Timestep: 360448; Y value: 266.584070012" role="graphics-symbol" aria-roledescription="circle" transform="translate(32.768,264.61919676866233)" d="M2.7386127875258306,0A2.7386127875258306,2.7386127875258306,0,1,1,-2.7386127875258306,0A2.7386127875258306,2.7386127875258306,0,1,1,2.7386127875258306,0" fill="#4c78a8" stroke-width="2" opacity="1"/><path aria-label="time/steps: 393216; legend_value: 275.898931486; legend_name: collector/env_reward_mean; Timestep: 393216; Y value: 275.898931486" role="graphics-symbol" aria-roledescription="circle" transform="translate(35.74690909090909,264.18928008525995)" d="M2.7386127875258306,0A2.7386127875258306,2.7386127875258306,0,1,1,-2.7386127875258306,0A2.7386127875258306,2.7386127875258306,0,1,1,2.7386127875258306,0" fill="#4c78a8" stroke-width="2" opacity="1"/><path aria-label="time/steps: 425984; legend_value: 292.102602937; legend_name: collector/env_reward_mean; Timestep: 425984; Y value: 292.102602937" role="graphics-symbol" aria-roledescription="circle" transform="translate(38.725818181818184,263.44141832598893)" d="M2.7386127875258306,0A2.7386127875258306,2.7386127875258306,0,1,1,-2.7386127875258306,0A2.7386127875258306,2.7386127875258306,0,1,1,2.7386127875258306,0" fill="#4c78a8" stroke-width="2" opacity="1"/><path aria-label="time/steps: 458752; legend_value: 313.306718762; legend_name: collector/env_reward_mean; Timestep: 458752; Y value: 313.306718762" role="graphics-symbol" aria-roledescription="circle" transform="translate(41.704727272727276,262.46276682637875)" d="M2.7386127875258306,0A2.7386127875258306,2.7386127875258306,0,1,1,-2.7386127875258306,0A2.7386127875258306,2.7386127875258306,0,1,1,2.7386127875258306,0" fill="#4c78a8" stroke-width="2" opacity="1"/><path aria-label="time/steps: 491520; legend_value: 326.855012277; legend_name: collector/env_reward_mean; Timestep: 491520; Y value: 326.855012277" role="graphics-symbol" aria-roledescription="circle" transform="translate(44.68363636363636,261.83746097184957)" d="M2.7386127875258306,0A2.7386127875258306,2.7386127875258306,0,1,1,-2.7386127875258306,0A2.7386127875258306,2.7386127875258306,0,1,1,2.7386127875258306,0" fill="#4c78a8" stroke-width="2" opacity="1"/><path aria-label="time/steps: 524288; legend_value: 344.037094616; legend_name: collector/env_reward_mean; Timestep: 524288; Y value: 344.037094616" role="graphics-symbol" aria-roledescription="circle" transform="translate(47.66254545454546,261.0444417869448)" d="M2.7386127875258306,0A2.7386127875258306,2.7386127875258306,0,1,1,-2.7386127875258306,0A2.7386127875258306,2.7386127875258306,0,1,1,2.7386127875258306,0" fill="#4c78a8" stroke-width="2" opacity="1"/><path aria-label="time/steps: 557056; legend_value: 359.180510452; legend_name: collector/env_reward_mean; Timestep: 557056; Y value: 359.180510452" role="graphics-symbol" aria-roledescription="circle" transform="translate(50.64145454545454,260.3455149021928)" d="M2.7386127875258306,0A2.7386127875258306,2.7386127875258306,0,1,1,-2.7386127875258306,0A2.7386127875258306,2.7386127875258306,0,1,1,2.7386127875258306,0" fill="#4c78a8" stroke-width="2" opacity="1"/><path aria-label="time/steps: 589824; legend_value: 376.519127194; legend_name: collector/env_reward_mean; Timestep: 589824; Y value: 376.519127194" role="graphics-symbol" aria-roledescription="circle" transform="translate(53.62036363636364,259.54527105257336)" d="M2.7386127875258306,0A2.7386127875258306,2.7386127875258306,0,1,1,-2.7386127875258306,0A2.7386127875258306,2.7386127875258306,0,1,1,2.7386127875258306,0" fill="#4c78a8" stroke-width="2" opacity="1"/><path aria-label="time/steps: 622592; legend_value: 395.06699132; legend_name: collector/env_reward_mean; Timestep: 622592; Y value: 395.06699132" role="graphics-symbol" aria-roledescription="circle" transform="translate(56.59927272727273,258.689215785238)" d="M2.7386127875258306,0A2.7386127875258306,2.7386127875258306,0,1,1,-2.7386127875258306,0A2.7386127875258306,2.7386127875258306,0,1,1,2.7386127875258306,0" fill="#4c78a8" stroke-width="2" opacity="1"/><path aria-label="time/steps: 655360; legend_value: 408.200787563; legend_name: collector/env_reward_mean; Timestep: 655360; Y value: 408.200787563" role="graphics-symbol" aria-roledescription="circle" transform="translate(59.57818181818182,258.0830405740177)" d="M2.7386127875258306,0A2.7386127875258306,2.7386127875258306,0,1,1,-2.7386127875258306,0A2.7386127875258306,2.7386127875258306,0,1,1,2.7386127875258306,0" fill="#4c78a8" stroke-width="2" opacity="1"/><path aria-label="time/steps: 688128; legend_value: 430.615313586; legend_name: collector/env_reward_mean; Timestep: 688128; Y value: 430.615313586" role="graphics-symbol" aria-roledescription="circle" transform="translate(62.55709090909091,257.0485239883354)" d="M2.7386127875258306,0A2.7386127875258306,2.7386127875258306,0,1,1,-2.7386127875258306,0A2.7386127875258306,2.7386127875258306,0,1,1,2.7386127875258306,0" fill="#4c78a8" stroke-width="2" opacity="1"/><path aria-label="time/steps: 720896; legend_value: 459.508759127; legend_name: collector/env_reward_mean; Timestep: 720896; Y value: 459.508759127" role="graphics-symbol" aria-roledescription="circle" transform="translate(65.536,255.71498034797702)" d="M2.7386127875258306,0A2.7386127875258306,2.7386127875258306,0,1,1,-2.7386127875258306,0A2.7386127875258306,2.7386127875258306,0,1,1,2.7386127875258306,0" fill="#4c78a8" stroke-width="2" opacity="1"/><path aria-label="time/steps: 753664; legend_value: 463.664064368; legend_name: collector/env_reward_mean; Timestep: 753664; Y value: 463.664064368" role="graphics-symbol" aria-roledescription="circle" transform="translate(68.51490909090909,255.5231970291497)" d="M2.7386127875258306,0A2.7386127875258306,2.7386127875258306,0,1,1,-2.7386127875258306,0A2.7386127875258306,2.7386127875258306,0,1,1,2.7386127875258306,0" fill="#4c78a8" stroke-width="2" opacity="1"/><path aria-label="time/steps: 786432; legend_value: 481.953505998; legend_name: collector/env_reward_mean; Timestep: 786432; Y value: 481.953505998" role="graphics-symbol" aria-roledescription="circle" transform="translate(71.49381818181818,254.67906895394745)" d="M2.7386127875258306,0A2.7386127875258306,2.7386127875258306,0,1,1,-2.7386127875258306,0A2.7386127875258306,2.7386127875258306,0,1,1,2.7386127875258306,0" fill="#4c78a8" stroke-width="2" opacity="1"/><path aria-label="time/steps: 819200; legend_value: 494.576069216; legend_name: collector/env_reward_mean; Timestep: 819200; Y value: 494.576069216" role="graphics-symbol" aria-roledescription="circle" transform="translate(74.47272727272727,254.09648911311078)" d="M2.7386127875258306,0A2.7386127875258306,2.7386127875258306,0,1,1,-2.7386127875258306,0A2.7386127875258306,2.7386127875258306,0,1,1,2.7386127875258306,0" fill="#4c78a8" stroke-width="2" opacity="1"/><path aria-label="time/steps: 851968; legend_value: 534.38796305; legend_name: collector/env_reward_mean; Timestep: 851968; Y value: 534.38796305" role="graphics-symbol" aria-roledescription="circle" transform="translate(77.45163636363637,252.25901708999768)" d="M2.7386127875258306,0A2.7386127875258306,2.7386127875258306,0,1,1,-2.7386127875258306,0A2.7386127875258306,2.7386127875258306,0,1,1,2.7386127875258306,0" fill="#4c78a8" stroke-width="2" opacity="1"/><path aria-label="time/steps: 884736; legend_value: 526.555763655; legend_name: collector/env_reward_mean; Timestep: 884736; Y value: 526.555763655" role="graphics-symbol" aria-roledescription="circle" transform="translate(80.43054545454545,252.6205032159318)" d="M2.7386127875258306,0A2.7386127875258306,2.7386127875258306,0,1,1,-2.7386127875258306,0A2.7386127875258306,2.7386127875258306,0,1,1,2.7386127875258306,0" fill="#4c78a8" stroke-width="2" opacity="1"/><path aria-label="time/steps: 917504; legend_value: 546.982445972; legend_name: collector/env_reward_mean; Timestep: 917504; Y value: 546.982445972" role="graphics-symbol" aria-roledescription="circle" transform="translate(83.40945454545455,251.67773326282094)" d="M2.7386127875258306,0A2.7386127875258306,2.7386127875258306,0,1,1,-2.7386127875258306,0A2.7386127875258306,2.7386127875258306,0,1,1,2.7386127875258306,0" fill="#4c78a8" stroke-width="2" opacity="1"/><path aria-label="time/steps: 950272; legend_value: 571.732831049; legend_name: collector/env_reward_mean; Timestep: 950272; Y value: 571.732831049" role="graphics-symbol" aria-roledescription="circle" transform="translate(86.38836363636364,250.53540779772774)" d="M2.7386127875258306,0A2.7386127875258306,2.7386127875258306,0,1,1,-2.7386127875258306,0A2.7386127875258306,2.7386127875258306,0,1,1,2.7386127875258306,0" fill="#4c78a8" stroke-width="2" opacity="1"/><path aria-label="time/steps: 983040; legend_value: 611.921026363; legend_name: collector/env_reward_mean; Timestep: 983040; Y value: 611.921026363" role="graphics-symbol" aria-roledescription="circle" transform="translate(89.36727272727272,248.68056801401863)" d="M2.7386127875258306,0A2.7386127875258306,2.7386127875258306,0,1,1,-2.7386127875258306,0A2.7386127875258306,2.7386127875258306,0,1,1,2.7386127875258306,0" fill="#4c78a8" stroke-width="2" opacity="1"/><path aria-label="time/steps: 1015808; legend_value: 638.672133664; legend_name: collector/env_reward_mean; Timestep: 1015808; Y value: 638.672133664" role="graphics-symbol" aria-roledescription="circle" transform="translate(92.34618181818182,247.44590152319765)" d="M2.7386127875258306,0A2.7386127875258306,2.7386127875258306,0,1,1,-2.7386127875258306,0A2.7386127875258306,2.7386127875258306,0,1,1,2.7386127875258306,0" fill="#4c78a8" stroke-width="2" opacity="1"/><path aria-label="time/steps: 1048576; legend_value: 674.80264772; legend_name: collector/env_reward_mean; Timestep: 1048576; Y value: 674.80264772" role="graphics-symbol" aria-roledescription="circle" transform="translate(95.32509090909092,245.77833933599314)" d="M2.7386127875258306,0A2.7386127875258306,2.7386127875258306,0,1,1,-2.7386127875258306,0A2.7386127875258306,2.7386127875258306,0,1,1,2.7386127875258306,0" fill="#4c78a8" stroke-width="2" opacity="1"/><path aria-label="time/steps: 1081344; legend_value: 732.555985311; legend_name: collector/env_reward_mean; Timestep: 1081344; Y value: 732.555985311" role="graphics-symbol" aria-roledescription="circle" transform="translate(98.304,243.1128006779597)" d="M2.7386127875258306,0A2.7386127875258306,2.7386127875258306,0,1,1,-2.7386127875258306,0A2.7386127875258306,2.7386127875258306,0,1,1,2.7386127875258306,0" fill="#4c78a8" stroke-width="2" opacity="1"/><path aria-label="time/steps: 1114112; legend_value: 798.71458922; legend_name: collector/env_reward_mean; Timestep: 1114112; Y value: 798.71458922" role="graphics-symbol" aria-roledescription="circle" transform="translate(101.28290909090909,240.05932665136558)" d="M2.7386127875258306,0A2.7386127875258306,2.7386127875258306,0,1,1,-2.7386127875258306,0A2.7386127875258306,2.7386127875258306,0,1,1,2.7386127875258306,0" fill="#4c78a8" stroke-width="2" opacity="1"/><path aria-label="time/steps: 1146880; legend_value: 823.562893216; legend_name: collector/env_reward_mean; Timestep: 1146880; Y value: 823.562893216" role="graphics-symbol" aria-roledescription="circle" transform="translate(104.26181818181817,238.91248185158304)" d="M2.7386127875258306,0A2.7386127875258306,2.7386127875258306,0,1,1,-2.7386127875258306,0A2.7386127875258306,2.7386127875258306,0,1,1,2.7386127875258306,0" fill="#4c78a8" stroke-width="2" opacity="1"/><path aria-label="time/steps: 1179648; legend_value: 883.757632836; legend_name: collector/env_reward_mean; Timestep: 1179648; Y value: 883.757632836" role="graphics-symbol" aria-roledescription="circle" transform="translate(107.24072727272728,236.13426309986016)" d="M2.7386127875258306,0A2.7386127875258306,2.7386127875258306,0,1,1,-2.7386127875258306,0A2.7386127875258306,2.7386127875258306,0,1,1,2.7386127875258306,0" fill="#4c78a8" stroke-width="2" opacity="1"/><path aria-label="time/steps: 1212416; legend_value: 921.267155847; legend_name: collector/env_reward_mean; Timestep: 1212416; Y value: 921.267155847" role="graphics-symbol" aria-roledescription="circle" transform="translate(110.21963636363637,234.40305434552843)" d="M2.7386127875258306,0A2.7386127875258306,2.7386127875258306,0,1,1,-2.7386127875258306,0A2.7386127875258306,2.7386127875258306,0,1,1,2.7386127875258306,0" fill="#4c78a8" stroke-width="2" opacity="1"/><path aria-label="time/steps: 1245184; legend_value: 1073.52403759; legend_name: collector/env_reward_mean; Timestep: 1245184; Y value: 1073.52403759" role="graphics-symbol" aria-roledescription="circle" transform="translate(113.19854545454545,227.37581364963037)" d="M2.7386127875258306,0A2.7386127875258306,2.7386127875258306,0,1,1,-2.7386127875258306,0A2.7386127875258306,2.7386127875258306,0,1,1,2.7386127875258306,0" fill="#4c78a8" stroke-width="2" opacity="1"/><path aria-label="time/steps: 1277952; legend_value: 1146.55129336; legend_name: collector/env_reward_mean; Timestep: 1277952; Y value: 1146.55129336" role="graphics-symbol" aria-roledescription="circle" transform="translate(116.17745454545454,224.0053249216604)" d="M2.7386127875258306,0A2.7386127875258306,2.7386127875258306,0,1,1,-2.7386127875258306,0A2.7386127875258306,2.7386127875258306,0,1,1,2.7386127875258306,0" fill="#4c78a8" stroke-width="2" opacity="1"/><path aria-label="time/steps: 1310720; legend_value: 1242.60771698; legend_name: collector/env_reward_mean; Timestep: 1310720; Y value: 1242.60771698" role="graphics-symbol" aria-roledescription="circle" transform="translate(119.15636363636364,219.57195152413766)" d="M2.7386127875258306,0A2.7386127875258306,2.7386127875258306,0,1,1,-2.7386127875258306,0A2.7386127875258306,2.7386127875258306,0,1,1,2.7386127875258306,0" fill="#4c78a8" stroke-width="2" opacity="1"/><path aria-label="time/steps: 1343488; legend_value: 1509.82458641; legend_name: collector/env_reward_mean; Timestep: 1343488; Y value: 1509.82458641" role="graphics-symbol" aria-roledescription="circle" transform="translate(122.13527272727273,207.2388652424236)" d="M2.7386127875258306,0A2.7386127875258306,2.7386127875258306,0,1,1,-2.7386127875258306,0A2.7386127875258306,2.7386127875258306,0,1,1,2.7386127875258306,0" fill="#4c78a8" stroke-width="2" opacity="1"/><path aria-label="time/steps: 1376256; legend_value: 1737.13433105; legend_name: collector/env_reward_mean; Timestep: 1376256; Y value: 1737.13433105" role="graphics-symbol" aria-roledescription="circle" transform="translate(125.11418181818182,196.74764625901443)" d="M2.7386127875258306,0A2.7386127875258306,2.7386127875258306,0,1,1,-2.7386127875258306,0A2.7386127875258306,2.7386127875258306,0,1,1,2.7386127875258306,0" fill="#4c78a8" stroke-width="2" opacity="1"/><path aria-label="time/steps: 1409024; legend_value: 2004.16195723; legend_name: collector/env_reward_mean; Timestep: 1409024; Y value: 2004.16195723" role="graphics-symbol" aria-roledescription="circle" transform="translate(128.0930909090909,184.42329428172033)" d="M2.7386127875258306,0A2.7386127875258306,2.7386127875258306,0,1,1,-2.7386127875258306,0A2.7386127875258306,2.7386127875258306,0,1,1,2.7386127875258306,0" fill="#4c78a8" stroke-width="2" opacity="1"/><path aria-label="time/steps: 1441792; legend_value: 2108.98757657; legend_name: collector/env_reward_mean; Timestep: 1441792; Y value: 2108.98757657" role="graphics-symbol" aria-roledescription="circle" transform="translate(131.072,179.58518877362872)" d="M2.7386127875258306,0A2.7386127875258306,2.7386127875258306,0,1,1,-2.7386127875258306,0A2.7386127875258306,2.7386127875258306,0,1,1,2.7386127875258306,0" fill="#4c78a8" stroke-width="2" opacity="1"/><path aria-label="time/steps: 1474560; legend_value: 2122.51300049; legend_name: collector/env_reward_mean; Timestep: 1474560; Y value: 2122.51300049" role="graphics-symbol" aria-roledescription="circle" transform="translate(134.05090909090907,178.96093843900238)" d="M2.7386127875258306,0A2.7386127875258306,2.7386127875258306,0,1,1,-2.7386127875258306,0A2.7386127875258306,2.7386127875258306,0,1,1,2.7386127875258306,0" fill="#4c78a8" stroke-width="2" opacity="1"/><path aria-label="time/steps: 1507328; legend_value: 2296.3605004; legend_name: collector/env_reward_mean; Timestep: 1507328; Y value: 2296.3605004" role="graphics-symbol" aria-roledescription="circle" transform="translate(137.02981818181817,170.9372076737253)" d="M2.7386127875258306,0A2.7386127875258306,2.7386127875258306,0,1,1,-2.7386127875258306,0A2.7386127875258306,2.7386127875258306,0,1,1,2.7386127875258306,0" fill="#4c78a8" stroke-width="2" opacity="1"/><path aria-label="time/steps: 1540096; legend_value: 2977.11353713; legend_name: collector/env_reward_mean; Timestep: 1540096; Y value: 2977.11353713" role="graphics-symbol" aria-roledescription="circle" transform="translate(140.0087272727273,139.5178367479313)" d="M2.7386127875258306,0A2.7386127875258306,2.7386127875258306,0,1,1,-2.7386127875258306,0A2.7386127875258306,2.7386127875258306,0,1,1,2.7386127875258306,0" fill="#4c78a8" stroke-width="2" opacity="1"/><path aria-label="time/steps: 1572864; legend_value: 3020.22361268; legend_name: collector/env_reward_mean; Timestep: 1572864; Y value: 3020.22361268" role="graphics-symbol" aria-roledescription="circle" transform="translate(142.98763636363637,137.52814095305146)" d="M2.7386127875258306,0A2.7386127875258306,2.7386127875258306,0,1,1,-2.7386127875258306,0A2.7386127875258306,2.7386127875258306,0,1,1,2.7386127875258306,0" fill="#4c78a8" stroke-width="2" opacity="1"/><path aria-label="time/steps: 1605632; legend_value: 2411.54046985; legend_name: collector/env_reward_mean; Timestep: 1605632; Y value: 2411.54046985" role="graphics-symbol" aria-roledescription="circle" transform="translate(145.96654545454547,165.62120908380862)" d="M2.7386127875258306,0A2.7386127875258306,2.7386127875258306,0,1,1,-2.7386127875258306,0A2.7386127875258306,2.7386127875258306,0,1,1,2.7386127875258306,0" fill="#4c78a8" stroke-width="2" opacity="1"/><path aria-label="time/steps: 1638400; legend_value: 2604.82951592; legend_name: collector/env_reward_mean; Timestep: 1638400; Y value: 2604.82951592" role="graphics-symbol" aria-roledescription="circle" transform="translate(148.94545454545454,156.70017618842087)" d="M2.7386127875258306,0A2.7386127875258306,2.7386127875258306,0,1,1,-2.7386127875258306,0A2.7386127875258306,2.7386127875258306,0,1,1,2.7386127875258306,0" fill="#4c78a8" stroke-width="2" opacity="1"/><path aria-label="time/steps: 1671168; legend_value: 3138.45006375; legend_name: collector/env_reward_mean; Timestep: 1671168; Y value: 3138.45006375" role="graphics-symbol" aria-roledescription="circle" transform="translate(151.92436363636364,132.07153551933092)" d="M2.7386127875258306,0A2.7386127875258306,2.7386127875258306,0,1,1,-2.7386127875258306,0A2.7386127875258306,2.7386127875258306,0,1,1,2.7386127875258306,0" fill="#4c78a8" stroke-width="2" opacity="1"/><path aria-label="time/steps: 1703936; legend_value: 3216.21267212; legend_name: collector/env_reward_mean; Timestep: 1703936; Y value: 3216.21267212" role="graphics-symbol" aria-roledescription="circle" transform="translate(154.90327272727274,128.48249205603966)" d="M2.7386127875258306,0A2.7386127875258306,2.7386127875258306,0,1,1,-2.7386127875258306,0A2.7386127875258306,2.7386127875258306,0,1,1,2.7386127875258306,0" fill="#4c78a8" stroke-width="2" opacity="1"/><path aria-label="time/steps: 1736704; legend_value: 3263.32648415; legend_name: collector/env_reward_mean; Timestep: 1736704; Y value: 3263.32648415" role="graphics-symbol" aria-roledescription="circle" transform="translate(157.8821818181818,126.3080084239434)" d="M2.7386127875258306,0A2.7386127875258306,2.7386127875258306,0,1,1,-2.7386127875258306,0A2.7386127875258306,2.7386127875258306,0,1,1,2.7386127875258306,0" fill="#4c78a8" stroke-width="2" opacity="1"/><path aria-label="time/steps: 1769472; legend_value: 3523.95538039; legend_name: collector/env_reward_mean; Timestep: 1769472; Y value: 3523.95538039" role="graphics-symbol" aria-roledescription="circle" transform="translate(160.8610909090909,114.27898244333791)" d="M2.7386127875258306,0A2.7386127875258306,2.7386127875258306,0,1,1,-2.7386127875258306,0A2.7386127875258306,2.7386127875258306,0,1,1,2.7386127875258306,0" fill="#4c78a8" stroke-width="2" opacity="1"/><path aria-label="time/steps: 1802240; legend_value: 3527.95298282; legend_name: collector/env_reward_mean; Timestep: 1802240; Y value: 3527.95298282" role="graphics-symbol" aria-roledescription="circle" transform="translate(163.84,114.09447771619249)" d="M2.7386127875258306,0A2.7386127875258306,2.7386127875258306,0,1,1,-2.7386127875258306,0A2.7386127875258306,2.7386127875258306,0,1,1,2.7386127875258306,0" fill="#4c78a8" stroke-width="2" opacity="1"/><path aria-label="time/steps: 1835008; legend_value: 3749.75087391; legend_name: collector/env_reward_mean; Timestep: 1835008; Y value: 3749.75087391" role="graphics-symbol" aria-roledescription="circle" transform="translate(166.8189090909091,103.85765197327088)" d="M2.7386127875258306,0A2.7386127875258306,2.7386127875258306,0,1,1,-2.7386127875258306,0A2.7386127875258306,2.7386127875258306,0,1,1,2.7386127875258306,0" fill="#4c78a8" stroke-width="2" opacity="1"/><path aria-label="time/steps: 1867776; legend_value: 3293.88322604; legend_name: collector/env_reward_mean; Timestep: 1867776; Y value: 3293.88322604" role="graphics-symbol" aria-roledescription="circle" transform="translate(169.7978181818182,124.89769725949273)" d="M2.7386127875258306,0A2.7386127875258306,2.7386127875258306,0,1,1,-2.7386127875258306,0A2.7386127875258306,2.7386127875258306,0,1,1,2.7386127875258306,0" fill="#4c78a8" stroke-width="2" opacity="1"/><path aria-label="time/steps: 1900544; legend_value: 3740.71819926; legend_name: collector/env_reward_mean; Timestep: 1900544; Y value: 3740.71819926" role="graphics-symbol" aria-roledescription="circle" transform="translate(172.77672727272727,104.27454464934596)" d="M2.7386127875258306,0A2.7386127875258306,2.7386127875258306,0,1,1,-2.7386127875258306,0A2.7386127875258306,2.7386127875258306,0,1,1,2.7386127875258306,0" fill="#4c78a8" stroke-width="2" opacity="1"/><path aria-label="time/steps: 1933312; legend_value: 3198.19155884; legend_name: collector/env_reward_mean; Timestep: 1933312; Y value: 3198.19155884" role="graphics-symbol" aria-roledescription="circle" transform="translate(175.75563636363637,129.3142357459435)" d="M2.7386127875258306,0A2.7386127875258306,2.7386127875258306,0,1,1,-2.7386127875258306,0A2.7386127875258306,2.7386127875258306,0,1,1,2.7386127875258306,0" fill="#4c78a8" stroke-width="2" opacity="1"/><path aria-label="time/steps: 1966080; legend_value: 3359.85853172; legend_name: collector/env_reward_mean; Timestep: 1966080; Y value: 3359.85853172" role="graphics-symbol" aria-roledescription="circle" transform="translate(178.73454545454544,121.85268315146068)" d="M2.7386127875258306,0A2.7386127875258306,2.7386127875258306,0,1,1,-2.7386127875258306,0A2.7386127875258306,2.7386127875258306,0,1,1,2.7386127875258306,0" fill="#4c78a8" stroke-width="2" opacity="1"/><path aria-label="time/steps: 1998848; legend_value: 3006.63057943; legend_name: collector/env_reward_mean; Timestep: 1998848; Y value: 3006.63057943" role="graphics-symbol" aria-roledescription="circle" transform="translate(181.71345454545454,138.15551171838888)" d="M2.7386127875258306,0A2.7386127875258306,2.7386127875258306,0,1,1,-2.7386127875258306,0A2.7386127875258306,2.7386127875258306,0,1,1,2.7386127875258306,0" fill="#4c78a8" stroke-width="2" opacity="1"/><path aria-label="time/steps: 2031616; legend_value: 3530.39242999; legend_name: collector/env_reward_mean; Timestep: 2031616; Y value: 3530.39242999" role="graphics-symbol" aria-roledescription="circle" transform="translate(184.69236363636364,113.98188784672665)" d="M2.7386127875258306,0A2.7386127875258306,2.7386127875258306,0,1,1,-2.7386127875258306,0A2.7386127875258306,2.7386127875258306,0,1,1,2.7386127875258306,0" fill="#4c78a8" stroke-width="2" opacity="1"/><path aria-label="time/steps: 2064384; legend_value: 2996.78017958; legend_name: collector/env_reward_mean; Timestep: 2064384; Y value: 2996.78017958" role="graphics-symbol" aria-roledescription="circle" transform="translate(187.6712727272727,138.61014555777453)" d="M2.7386127875258306,0A2.7386127875258306,2.7386127875258306,0,1,1,-2.7386127875258306,0A2.7386127875258306,2.7386127875258306,0,1,1,2.7386127875258306,0" fill="#4c78a8" stroke-width="2" opacity="1"/><path aria-label="time/steps: 2097152; legend_value: 3589.97396783; legend_name: collector/env_reward_mean; Timestep: 2097152; Y value: 3589.97396783" role="graphics-symbol" aria-roledescription="circle" transform="translate(190.65018181818184,111.23197071564505)" d="M2.7386127875258306,0A2.7386127875258306,2.7386127875258306,0,1,1,-2.7386127875258306,0A2.7386127875258306,2.7386127875258306,0,1,1,2.7386127875258306,0" fill="#4c78a8" stroke-width="2" opacity="1"/><path aria-label="time/steps: 2129920; legend_value: 3223.75642014; legend_name: collector/env_reward_mean; Timestep: 2129920; Y value: 3223.75642014" role="graphics-symbol" aria-roledescription="circle" transform="translate(193.6290909090909,128.13431907066933)" d="M2.7386127875258306,0A2.7386127875258306,2.7386127875258306,0,1,1,-2.7386127875258306,0A2.7386127875258306,2.7386127875258306,0,1,1,2.7386127875258306,0" fill="#4c78a8" stroke-width="2" opacity="1"/><path aria-label="time/steps: 2162688; legend_value: 4088.00797671; legend_name: collector/env_reward_mean; Timestep: 2162688; Y value: 4088.00797671" role="graphics-symbol" aria-roledescription="circle" transform="translate(196.608,88.24578569013993)" d="M2.7386127875258306,0A2.7386127875258306,2.7386127875258306,0,1,1,-2.7386127875258306,0A2.7386127875258306,2.7386127875258306,0,1,1,2.7386127875258306,0" fill="#4c78a8" stroke-width="2" opacity="1"/><path aria-label="time/steps: 2195456; legend_value: 4601.25035943; legend_name: collector/env_reward_mean; Timestep: 2195456; Y value: 4601.25035943" role="graphics-symbol" aria-roledescription="circle" transform="translate(199.5869090909091,64.55767571864983)" d="M2.7386127875258306,0A2.7386127875258306,2.7386127875258306,0,1,1,-2.7386127875258306,0A2.7386127875258306,2.7386127875258306,0,1,1,2.7386127875258306,0" fill="#4c78a8" stroke-width="2" opacity="1"/><path aria-label="time/steps: 2228224; legend_value: 4560.14157847; legend_name: collector/env_reward_mean; Timestep: 2228224; Y value: 4560.14157847" role="graphics-symbol" aria-roledescription="circle" transform="translate(202.56581818181817,66.45500407070232)" d="M2.7386127875258306,0A2.7386127875258306,2.7386127875258306,0,1,1,-2.7386127875258306,0A2.7386127875258306,2.7386127875258306,0,1,1,2.7386127875258306,0" fill="#4c78a8" stroke-width="2" opacity="1"/><path aria-label="time/steps: 2260992; legend_value: 4609.53729248; legend_name: collector/env_reward_mean; Timestep: 2260992; Y value: 4609.53729248" role="graphics-symbol" aria-roledescription="circle" transform="translate(205.54472727272727,64.17520188551683)" d="M2.7386127875258306,0A2.7386127875258306,2.7386127875258306,0,1,1,-2.7386127875258306,0A2.7386127875258306,2.7386127875258306,0,1,1,2.7386127875258306,0" fill="#4c78a8" stroke-width="2" opacity="1"/><path aria-label="time/steps: 2293760; legend_value: 4482.1310995; legend_name: collector/env_reward_mean; Timestep: 2293760; Y value: 4482.1310995" role="graphics-symbol" aria-roledescription="circle" transform="translate(208.52363636363634,70.0554877153775)" d="M2.7386127875258306,0A2.7386127875258306,2.7386127875258306,0,1,1,-2.7386127875258306,0A2.7386127875258306,2.7386127875258306,0,1,1,2.7386127875258306,0" fill="#4c78a8" stroke-width="2" opacity="1"/><path aria-label="time/steps: 2326528; legend_value: 4455.96536997; legend_name: collector/env_reward_mean; Timestep: 2326528; Y value: 4455.96536997" role="graphics-symbol" aria-roledescription="circle" transform="translate(211.50254545454544,71.26313677052201)" d="M2.7386127875258306,0A2.7386127875258306,2.7386127875258306,0,1,1,-2.7386127875258306,0A2.7386127875258306,2.7386127875258306,0,1,1,2.7386127875258306,0" fill="#4c78a8" stroke-width="2" opacity="1"/><path aria-label="time/steps: 2359296; legend_value: 4344.0823599; legend_name: collector/env_reward_mean; Timestep: 2359296; Y value: 4344.0823599" role="graphics-symbol" aria-roledescription="circle" transform="translate(214.48145454545457,76.42696800457655)" d="M2.7386127875258306,0A2.7386127875258306,2.7386127875258306,0,1,1,-2.7386127875258306,0A2.7386127875258306,2.7386127875258306,0,1,1,2.7386127875258306,0" fill="#4c78a8" stroke-width="2" opacity="1"/><path aria-label="time/steps: 2392064; legend_value: 4109.36819979; legend_name: collector/env_reward_mean; Timestep: 2392064; Y value: 4109.36819979" role="graphics-symbol" aria-roledescription="circle" transform="translate(217.46036363636364,87.25992924044327)" d="M2.7386127875258306,0A2.7386127875258306,2.7386127875258306,0,1,1,-2.7386127875258306,0A2.7386127875258306,2.7386127875258306,0,1,1,2.7386127875258306,0" fill="#4c78a8" stroke-width="2" opacity="1"/><path aria-label="time/steps: 2424832; legend_value: 4266.89834179; legend_name: collector/env_reward_mean; Timestep: 2424832; Y value: 4266.89834179" role="graphics-symbol" aria-roledescription="circle" transform="translate(220.43927272727274,79.98930730219487)" d="M2.7386127875258306,0A2.7386127875258306,2.7386127875258306,0,1,1,-2.7386127875258306,0A2.7386127875258306,2.7386127875258306,0,1,1,2.7386127875258306,0" fill="#4c78a8" stroke-width="2" opacity="1"/><path aria-label="time/steps: 2457600; legend_value: 4272.16216559; legend_name: collector/env_reward_mean; Timestep: 2457600; Y value: 4272.16216559" role="graphics-symbol" aria-roledescription="circle" transform="translate(223.4181818181818,79.74636158808039)" d="M2.7386127875258306,0A2.7386127875258306,2.7386127875258306,0,1,1,-2.7386127875258306,0A2.7386127875258306,2.7386127875258306,0,1,1,2.7386127875258306,0" fill="#4c78a8" stroke-width="2" opacity="1"/><path aria-label="time/steps: 2490368; legend_value: 4164.38903957; legend_name: collector/env_reward_mean; Timestep: 2490368; Y value: 4164.38903957" role="graphics-symbol" aria-roledescription="circle" transform="translate(226.3970909090909,84.72050586578769)" d="M2.7386127875258306,0A2.7386127875258306,2.7386127875258306,0,1,1,-2.7386127875258306,0A2.7386127875258306,2.7386127875258306,0,1,1,2.7386127875258306,0" fill="#4c78a8" stroke-width="2" opacity="1"/><path aria-label="time/steps: 2523136; legend_value: 4259.43467102; legend_name: collector/env_reward_mean; Timestep: 2523136; Y value: 4259.43467102" role="graphics-symbol" aria-roledescription="circle" transform="translate(229.376,80.33378441443807)" d="M2.7386127875258306,0A2.7386127875258306,2.7386127875258306,0,1,1,-2.7386127875258306,0A2.7386127875258306,2.7386127875258306,0,1,1,2.7386127875258306,0" fill="#4c78a8" stroke-width="2" opacity="1"/><path aria-label="time/steps: 2555904; legend_value: 4332.66439224; legend_name: collector/env_reward_mean; Timestep: 2555904; Y value: 4332.66439224" role="graphics-symbol" aria-roledescription="circle" transform="translate(232.35490909090908,76.95395112744414)" d="M2.7386127875258306,0A2.7386127875258306,2.7386127875258306,0,1,1,-2.7386127875258306,0A2.7386127875258306,2.7386127875258306,0,1,1,2.7386127875258306,0" fill="#4c78a8" stroke-width="2" opacity="1"/><path aria-label="time/steps: 2588672; legend_value: 4074.59921611; legend_name: collector/env_reward_mean; Timestep: 2588672; Y value: 4074.59921611" role="graphics-symbol" aria-roledescription="circle" transform="translate(235.33381818181817,88.86465156395116)" d="M2.7386127875258306,0A2.7386127875258306,2.7386127875258306,0,1,1,-2.7386127875258306,0A2.7386127875258306,2.7386127875258306,0,1,1,2.7386127875258306,0" fill="#4c78a8" stroke-width="2" opacity="1"/><path aria-label="time/steps: 2621440; legend_value: 3926.74963452; legend_name: collector/env_reward_mean; Timestep: 2621440; Y value: 3926.74963452" role="graphics-symbol" aria-roledescription="circle" transform="translate(238.31272727272727,95.68847840696901)" d="M2.7386127875258306,0A2.7386127875258306,2.7386127875258306,0,1,1,-2.7386127875258306,0A2.7386127875258306,2.7386127875258306,0,1,1,2.7386127875258306,0" fill="#4c78a8" stroke-width="2" opacity="1"/><path aria-label="time/steps: 2654208; legend_value: 4463.78874126; legend_name: collector/env_reward_mean; Timestep: 2654208; Y value: 4463.78874126" role="graphics-symbol" aria-roledescription="circle" transform="translate(241.29163636363637,70.90205809558451)" d="M2.7386127875258306,0A2.7386127875258306,2.7386127875258306,0,1,1,-2.7386127875258306,0A2.7386127875258306,2.7386127875258306,0,1,1,2.7386127875258306,0" fill="#4c78a8" stroke-width="2" opacity="1"/><path aria-label="time/steps: 2686976; legend_value: 3864.37923; legend_name: collector/env_reward_mean; Timestep: 2686976; Y value: 3864.37923" role="graphics-symbol" aria-roledescription="circle" transform="translate(244.27054545454547,98.56711246146006)" d="M2.7386127875258306,0A2.7386127875258306,2.7386127875258306,0,1,1,-2.7386127875258306,0A2.7386127875258306,2.7386127875258306,0,1,1,2.7386127875258306,0" fill="#4c78a8" stroke-width="2" opacity="1"/><path aria-label="time/steps: 2719744; legend_value: 3912.58038469; legend_name: collector/env_reward_mean; Timestep: 2719744; Y value: 3912.58038469" role="graphics-symbol" aria-roledescription="circle" transform="translate(247.24945454545454,96.34244378363334)" d="M2.7386127875258306,0A2.7386127875258306,2.7386127875258306,0,1,1,-2.7386127875258306,0A2.7386127875258306,2.7386127875258306,0,1,1,2.7386127875258306,0" fill="#4c78a8" stroke-width="2" opacity="1"/><path aria-label="time/steps: 2752512; legend_value: 4272.58643951; legend_name: collector/env_reward_mean; Timestep: 2752512; Y value: 4272.58643951" role="graphics-symbol" aria-roledescription="circle" transform="translate(250.22836363636364,79.7267797147311)" d="M2.7386127875258306,0A2.7386127875258306,2.7386127875258306,0,1,1,-2.7386127875258306,0A2.7386127875258306,2.7386127875258306,0,1,1,2.7386127875258306,0" fill="#4c78a8" stroke-width="2" opacity="1"/><path aria-label="time/steps: 2785280; legend_value: 4482.71531325; legend_name: collector/env_reward_mean; Timestep: 2785280; Y value: 4482.71531325" role="graphics-symbol" aria-roledescription="circle" transform="translate(253.20727272727274,70.02852400379066)" d="M2.7386127875258306,0A2.7386127875258306,2.7386127875258306,0,1,1,-2.7386127875258306,0A2.7386127875258306,2.7386127875258306,0,1,1,2.7386127875258306,0" fill="#4c78a8" stroke-width="2" opacity="1"/><path aria-label="time/steps: 2818048; legend_value: 4084.10831937; legend_name: collector/env_reward_mean; Timestep: 2818048; Y value: 4084.10831937" role="graphics-symbol" aria-roledescription="circle" transform="translate(256.1861818181818,88.42576987526633)" d="M2.7386127875258306,0A2.7386127875258306,2.7386127875258306,0,1,1,-2.7386127875258306,0A2.7386127875258306,2.7386127875258306,0,1,1,2.7386127875258306,0" fill="#4c78a8" stroke-width="2" opacity="1"/><path aria-label="time/steps: 2850816; legend_value: 5043.19381714; legend_name: collector/env_reward_mean; Timestep: 2850816; Y value: 5043.19381714" role="graphics-symbol" aria-roledescription="circle" transform="translate(259.1650909090909,44.16028536283053)" d="M2.7386127875258306,0A2.7386127875258306,2.7386127875258306,0,1,1,-2.7386127875258306,0A2.7386127875258306,2.7386127875258306,0,1,1,2.7386127875258306,0" fill="#4c78a8" stroke-width="2" opacity="1"/><path aria-label="time/steps: 2883584; legend_value: 4959.13031488; legend_name: collector/env_reward_mean; Timestep: 2883584; Y value: 4959.13031488" role="graphics-symbol" aria-roledescription="circle" transform="translate(262.144,48.04013931336192)" d="M2.7386127875258306,0A2.7386127875258306,2.7386127875258306,0,1,1,-2.7386127875258306,0A2.7386127875258306,2.7386127875258306,0,1,1,2.7386127875258306,0" fill="#4c78a8" stroke-width="2" opacity="1"/><path aria-label="time/steps: 2916352; legend_value: 4941.56307086; legend_name: collector/env_reward_mean; Timestep: 2916352; Y value: 4941.56307086" role="graphics-symbol" aria-roledescription="circle" transform="translate(265.12290909090905,48.850935191158825)" d="M2.7386127875258306,0A2.7386127875258306,2.7386127875258306,0,1,1,-2.7386127875258306,0A2.7386127875258306,2.7386127875258306,0,1,1,2.7386127875258306,0" fill="#4c78a8" stroke-width="2" opacity="1"/><path aria-label="time/steps: 2949120; legend_value: 4797.00201573; legend_name: collector/env_reward_mean; Timestep: 2949120; Y value: 4797.00201573" role="graphics-symbol" aria-roledescription="circle" transform="translate(268.10181818181815,55.52298388960798)" d="M2.7386127875258306,0A2.7386127875258306,2.7386127875258306,0,1,1,-2.7386127875258306,0A2.7386127875258306,2.7386127875258306,0,1,1,2.7386127875258306,0" fill="#4c78a8" stroke-width="2" opacity="1"/><path aria-label="time/steps: 2981888; legend_value: 4444.02809417; legend_name: collector/env_reward_mean; Timestep: 2981888; Y value: 4444.02809417" role="graphics-symbol" aria-roledescription="circle" transform="translate(271.08072727272724,71.81408796141133)" d="M2.7386127875258306,0A2.7386127875258306,2.7386127875258306,0,1,1,-2.7386127875258306,0A2.7386127875258306,2.7386127875258306,0,1,1,2.7386127875258306,0" fill="#4c78a8" stroke-width="2" opacity="1"/><path aria-label="time/steps: 3014656; legend_value: 4754.92767673; legend_name: collector/env_reward_mean; Timestep: 3014656; Y value: 4754.92767673" role="graphics-symbol" aria-roledescription="circle" transform="translate(274.05963636363634,57.46487645858374)" d="M2.7386127875258306,0A2.7386127875258306,2.7386127875258306,0,1,1,-2.7386127875258306,0A2.7386127875258306,2.7386127875258306,0,1,1,2.7386127875258306,0" fill="#4c78a8" stroke-width="2" opacity="1"/><path aria-label="time/steps: 3047424; legend_value: 4814.97439837; legend_name: collector/env_reward_mean; Timestep: 3047424; Y value: 4814.97439837" role="graphics-symbol" aria-roledescription="circle" transform="translate(277.0385454545455,54.69348930610406)" d="M2.7386127875258306,0A2.7386127875258306,2.7386127875258306,0,1,1,-2.7386127875258306,0A2.7386127875258306,2.7386127875258306,0,1,1,2.7386127875258306,0" fill="#4c78a8" stroke-width="2" opacity="1"/><path aria-label="time/steps: 3080192; legend_value: 5192.99750977; legend_name: collector/env_reward_mean; Timestep: 3080192; Y value: 5192.99750977" role="graphics-symbol" aria-roledescription="circle" transform="translate(280.0174545454546,37.246268780048055)" d="M2.7386127875258306,0A2.7386127875258306,2.7386127875258306,0,1,1,-2.7386127875258306,0A2.7386127875258306,2.7386127875258306,0,1,1,2.7386127875258306,0" fill="#4c78a8" stroke-width="2" opacity="1"/><path aria-label="time/steps: 3112960; legend_value: 5092.43991767; legend_name: collector/env_reward_mean; Timestep: 3112960; Y value: 5092.43991767" role="graphics-symbol" aria-roledescription="circle" transform="translate(282.99636363636364,41.88738841521435)" d="M2.7386127875258306,0A2.7386127875258306,2.7386127875258306,0,1,1,-2.7386127875258306,0A2.7386127875258306,2.7386127875258306,0,1,1,2.7386127875258306,0" fill="#4c78a8" stroke-width="2" opacity="1"/><path aria-label="time/steps: 3145728; legend_value: 4728.74594727; legend_name: collector/env_reward_mean; Timestep: 3145728; Y value: 4728.74594727" role="graphics-symbol" aria-roledescription="circle" transform="translate(285.97527272727274,58.67326397235579)" d="M2.7386127875258306,0A2.7386127875258306,2.7386127875258306,0,1,1,-2.7386127875258306,0A2.7386127875258306,2.7386127875258306,0,1,1,2.7386127875258306,0" fill="#4c78a8" stroke-width="2" opacity="1"/><path aria-label="time/steps: 3178496; legend_value: 4896.76537524; legend_name: collector/env_reward_mean; Timestep: 3178496; Y value: 4896.76537524" role="graphics-symbol" aria-roledescription="circle" transform="translate(288.95418181818184,50.91852114287466)" d="M2.7386127875258306,0A2.7386127875258306,2.7386127875258306,0,1,1,-2.7386127875258306,0A2.7386127875258306,2.7386127875258306,0,1,1,2.7386127875258306,0" fill="#4c78a8" stroke-width="2" opacity="1"/><path aria-label="time/steps: 3211264; legend_value: 4858.95300132; legend_name: collector/env_reward_mean; Timestep: 3211264; Y value: 4858.95300132" role="graphics-symbol" aria-roledescription="circle" transform="translate(291.93309090909094,52.66370763122313)" d="M2.7386127875258306,0A2.7386127875258306,2.7386127875258306,0,1,1,-2.7386127875258306,0A2.7386127875258306,2.7386127875258306,0,1,1,2.7386127875258306,0" fill="#4c78a8" stroke-width="2" opacity="1"/><path aria-label="time/steps: 3244032; legend_value: 4998.69383611; legend_name: collector/env_reward_mean; Timestep: 3244032; Y value: 4998.69383611" role="graphics-symbol" aria-roledescription="circle" transform="translate(294.91200000000003,46.21413064112042)" d="M2.7386127875258306,0A2.7386127875258306,2.7386127875258306,0,1,1,-2.7386127875258306,0A2.7386127875258306,2.7386127875258306,0,1,1,2.7386127875258306,0" fill="#4c78a8" stroke-width="2" opacity="1"/><path aria-label="time/steps: 3276800; legend_value: 4430.75003373; legend_name: collector/env_reward_mean; Timestep: 3276800; Y value: 4430.75003373" role="graphics-symbol" aria-roledescription="circle" transform="translate(297.8909090909091,72.42692152015594)" d="M2.7386127875258306,0A2.7386127875258306,2.7386127875258306,0,1,1,-2.7386127875258306,0A2.7386127875258306,2.7386127875258306,0,1,1,2.7386127875258306,0" fill="#4c78a8" stroke-width="2" opacity="1"/><path aria-label="time/steps: 3309568; legend_value: 4736.2218895; legend_name: collector/env_reward_mean; Timestep: 3309568; Y value: 4736.2218895" role="graphics-symbol" aria-roledescription="circle" transform="translate(300.8698181818182,58.328220484806934)" d="M2.7386127875258306,0A2.7386127875258306,2.7386127875258306,0,1,1,-2.7386127875258306,0A2.7386127875258306,2.7386127875258306,0,1,1,2.7386127875258306,0" fill="#4c78a8" stroke-width="2" opacity="1"/><path aria-label="time/steps: 3342336; legend_value: 4298.47824488; legend_name: collector/env_reward_mean; Timestep: 3342336; Y value: 4298.47824488" role="graphics-symbol" aria-roledescription="circle" transform="translate(303.8487272727273,78.53177331326278)" d="M2.7386127875258306,0A2.7386127875258306,2.7386127875258306,0,1,1,-2.7386127875258306,0A2.7386127875258306,2.7386127875258306,0,1,1,2.7386127875258306,0" fill="#4c78a8" stroke-width="2" opacity="1"/><path aria-label="time/steps: 3375104; legend_value: 4570.01199823; legend_name: collector/env_reward_mean; Timestep: 3375104; Y value: 4570.01199823" role="graphics-symbol" aria-roledescription="circle" transform="translate(306.8276363636364,65.99944623568761)" d="M2.7386127875258306,0A2.7386127875258306,2.7386127875258306,0,1,1,-2.7386127875258306,0A2.7386127875258306,2.7386127875258306,0,1,1,2.7386127875258306,0" fill="#4c78a8" stroke-width="2" opacity="1"/><path aria-label="time/steps: 3407872; legend_value: 4864.69157579; legend_name: collector/env_reward_mean; Timestep: 3407872; Y value: 4864.69157579" role="graphics-symbol" aria-roledescription="circle" transform="translate(309.80654545454547,52.39885034805688)" d="M2.7386127875258306,0A2.7386127875258306,2.7386127875258306,0,1,1,-2.7386127875258306,0A2.7386127875258306,2.7386127875258306,0,1,1,2.7386127875258306,0" fill="#4c78a8" stroke-width="2" opacity="1"/><path aria-label="time/steps: 3440640; legend_value: 5345.49992101; legend_name: collector/env_reward_mean; Timestep: 3440640; Y value: 5345.49992101" role="graphics-symbol" aria-roledescription="circle" transform="translate(312.7854545454545,30.207695953231028)" d="M2.7386127875258306,0A2.7386127875258306,2.7386127875258306,0,1,1,-2.7386127875258306,0A2.7386127875258306,2.7386127875258306,0,1,1,2.7386127875258306,0" fill="#4c78a8" stroke-width="2" opacity="1"/><path aria-label="time/steps: 3473408; legend_value: 4725.62856726; legend_name: collector/env_reward_mean; Timestep: 3473408; Y value: 4725.62856726" role="graphics-symbol" aria-roledescription="circle" transform="translate(315.7643636363636,58.81714304965649)" d="M2.7386127875258306,0A2.7386127875258306,2.7386127875258306,0,1,1,-2.7386127875258306,0A2.7386127875258306,2.7386127875258306,0,1,1,2.7386127875258306,0" fill="#4c78a8" stroke-width="2" opacity="1"/><path aria-label="time/steps: 3506176; legend_value: 4911.52960687; legend_name: collector/env_reward_mean; Timestep: 3506176; Y value: 4911.52960687" role="graphics-symbol" aria-roledescription="circle" transform="translate(318.7432727272727,50.23709506756866)" d="M2.7386127875258306,0A2.7386127875258306,2.7386127875258306,0,1,1,-2.7386127875258306,0A2.7386127875258306,2.7386127875258306,0,1,1,2.7386127875258306,0" fill="#4c78a8" stroke-width="2" opacity="1"/><path aria-label="time/steps: 3538944; legend_value: 4900.00896896; legend_name: collector/env_reward_mean; Timestep: 3538944; Y value: 4900.00896896" role="graphics-symbol" aria-roledescription="circle" transform="translate(321.7221818181818,50.76881681743418)" d="M2.7386127875258306,0A2.7386127875258306,2.7386127875258306,0,1,1,-2.7386127875258306,0A2.7386127875258306,2.7386127875258306,0,1,1,2.7386127875258306,0" fill="#4c78a8" stroke-width="2" opacity="1"/><path aria-label="time/steps: 3571712; legend_value: 4463.99768364; legend_name: collector/env_reward_mean; Timestep: 3571712; Y value: 4463.99768364" role="graphics-symbol" aria-roledescription="circle" transform="translate(324.7010909090909,70.89241460116676)" d="M2.7386127875258306,0A2.7386127875258306,2.7386127875258306,0,1,1,-2.7386127875258306,0A2.7386127875258306,2.7386127875258306,0,1,1,2.7386127875258306,0" fill="#4c78a8" stroke-width="2" opacity="1"/><path aria-label="time/steps: 3604480; legend_value: 4764.39809222; legend_name: collector/env_reward_mean; Timestep: 3604480; Y value: 4764.39809222" role="graphics-symbol" aria-roledescription="circle" transform="translate(327.68,57.027780359289146)" d="M2.7386127875258306,0A2.7386127875258306,2.7386127875258306,0,1,1,-2.7386127875258306,0A2.7386127875258306,2.7386127875258306,0,1,1,2.7386127875258306,0" fill="#4c78a8" stroke-width="2" opacity="1"/><path aria-label="time/steps: 3637248; legend_value: 5217.4307251; legend_name: collector/env_reward_mean; Timestep: 3637248; Y value: 5217.4307251" role="graphics-symbol" aria-roledescription="circle" transform="translate(330.6589090909091,36.1185819185697)" d="M2.7386127875258306,0A2.7386127875258306,2.7386127875258306,0,1,1,-2.7386127875258306,0A2.7386127875258306,2.7386127875258306,0,1,1,2.7386127875258306,0" fill="#4c78a8" stroke-width="2" opacity="1"/><path aria-label="time/steps: 3670016; legend_value: 4874.96693759; legend_name: collector/env_reward_mean; Timestep: 3670016; Y value: 4874.96693759" role="graphics-symbol" aria-roledescription="circle" transform="translate(333.6378181818182,51.92460288023337)" d="M2.7386127875258306,0A2.7386127875258306,2.7386127875258306,0,1,1,-2.7386127875258306,0A2.7386127875258306,2.7386127875258306,0,1,1,2.7386127875258306,0" fill="#4c78a8" stroke-width="2" opacity="1"/><path aria-label="time/steps: 3702784; legend_value: 4803.10120914; legend_name: collector/env_reward_mean; Timestep: 3702784; Y value: 4803.10120914" role="graphics-symbol" aria-roledescription="circle" transform="translate(336.6167272727273,55.241482655142974)" d="M2.7386127875258306,0A2.7386127875258306,2.7386127875258306,0,1,1,-2.7386127875258306,0A2.7386127875258306,2.7386127875258306,0,1,1,2.7386127875258306,0" fill="#4c78a8" stroke-width="2" opacity="1"/><path aria-label="time/steps: 3735552; legend_value: 4433.83779755; legend_name: collector/env_reward_mean; Timestep: 3735552; Y value: 4433.83779755" role="graphics-symbol" aria-roledescription="circle" transform="translate(339.5956363636364,72.28440934401294)" d="M2.7386127875258306,0A2.7386127875258306,2.7386127875258306,0,1,1,-2.7386127875258306,0A2.7386127875258306,2.7386127875258306,0,1,1,2.7386127875258306,0" fill="#4c78a8" stroke-width="2" opacity="1"/><path aria-label="time/steps: 3768320; legend_value: 4275.37898432; legend_name: collector/env_reward_mean; Timestep: 3768320; Y value: 4275.37898432" role="graphics-symbol" aria-roledescription="circle" transform="translate(342.57454545454544,79.59789303146661)" d="M2.7386127875258306,0A2.7386127875258306,2.7386127875258306,0,1,1,-2.7386127875258306,0A2.7386127875258306,2.7386127875258306,0,1,1,2.7386127875258306,0" fill="#4c78a8" stroke-width="2" opacity="1"/><path aria-label="time/steps: 3801088; legend_value: 4680.07072488; legend_name: collector/env_reward_mean; Timestep: 3801088; Y value: 4680.07072488" role="graphics-symbol" aria-roledescription="circle" transform="translate(345.55345454545454,60.91981269791281)" d="M2.7386127875258306,0A2.7386127875258306,2.7386127875258306,0,1,1,-2.7386127875258306,0A2.7386127875258306,2.7386127875258306,0,1,1,2.7386127875258306,0" fill="#4c78a8" stroke-width="2" opacity="1"/><path aria-label="time/steps: 3833856; legend_value: 4557.26253751; legend_name: collector/env_reward_mean; Timestep: 3833856; Y value: 4557.26253751" role="graphics-symbol" aria-roledescription="circle" transform="translate(348.53236363636364,66.58788288395579)" d="M2.7386127875258306,0A2.7386127875258306,2.7386127875258306,0,1,1,-2.7386127875258306,0A2.7386127875258306,2.7386127875258306,0,1,1,2.7386127875258306,0" fill="#4c78a8" stroke-width="2" opacity="1"/><path aria-label="time/steps: 3866624; legend_value: 4636.13280148; legend_name: collector/env_reward_mean; Timestep: 3866624; Y value: 4636.13280148" role="graphics-symbol" aria-roledescription="circle" transform="translate(351.51127272727274,62.94771685478015)" d="M2.7386127875258306,0A2.7386127875258306,2.7386127875258306,0,1,1,-2.7386127875258306,0A2.7386127875258306,2.7386127875258306,0,1,1,2.7386127875258306,0" fill="#4c78a8" stroke-width="2" opacity="1"/><path aria-label="time/steps: 3899392; legend_value: 4854.53591116; legend_name: collector/env_reward_mean; Timestep: 3899392; Y value: 4854.53591116" role="graphics-symbol" aria-roledescription="circle" transform="translate(354.49018181818184,52.86757333114564)" d="M2.7386127875258306,0A2.7386127875258306,2.7386127875258306,0,1,1,-2.7386127875258306,0A2.7386127875258306,2.7386127875258306,0,1,1,2.7386127875258306,0" fill="#4c78a8" stroke-width="2" opacity="1"/><path aria-label="time/steps: 3932160; legend_value: 4597.33159035; legend_name: collector/env_reward_mean; Timestep: 3932160; Y value: 4597.33159035" role="graphics-symbol" aria-roledescription="circle" transform="translate(357.4690909090909,64.73854198378591)" d="M2.7386127875258306,0A2.7386127875258306,2.7386127875258306,0,1,1,-2.7386127875258306,0A2.7386127875258306,2.7386127875258306,0,1,1,2.7386127875258306,0" fill="#4c78a8" stroke-width="2" opacity="1"/><path aria-label="time/steps: 3964928; legend_value: 4588.36410014; legend_name: collector/env_reward_mean; Timestep: 3964928; Y value: 4588.36410014" role="graphics-symbol" aria-roledescription="circle" transform="translate(360.448,65.15242614746091)" d="M2.7386127875258306,0A2.7386127875258306,2.7386127875258306,0,1,1,-2.7386127875258306,0A2.7386127875258306,2.7386127875258306,0,1,1,2.7386127875258306,0" fill="#4c78a8" stroke-width="2" opacity="1"/><path aria-label="time/steps: 3997696; legend_value: 4691.79690382; legend_name: collector/env_reward_mean; Timestep: 3997696; Y value: 4691.79690382" role="graphics-symbol" aria-roledescription="circle" transform="translate(363.4269090909091,60.37860443897737)" d="M2.7386127875258306,0A2.7386127875258306,2.7386127875258306,0,1,1,-2.7386127875258306,0A2.7386127875258306,2.7386127875258306,0,1,1,2.7386127875258306,0" fill="#4c78a8" stroke-width="2" opacity="1"/><path aria-label="time/steps: 4030464; legend_value: 4482.87387775; legend_name: collector/env_reward_mean; Timestep: 4030464; Y value: 4482.87387775" role="graphics-symbol" aria-roledescription="circle" transform="translate(366.4058181818182,70.02120564219716)" d="M2.7386127875258306,0A2.7386127875258306,2.7386127875258306,0,1,1,-2.7386127875258306,0A2.7386127875258306,2.7386127875258306,0,1,1,2.7386127875258306,0" fill="#4c78a8" stroke-width="2" opacity="1"/><path aria-label="time/steps: 4063232; legend_value: 4655.76147296; legend_name: collector/env_reward_mean; Timestep: 4063232; Y value: 4655.76147296" role="graphics-symbol" aria-roledescription="circle" transform="translate(369.3847272727273,62.04177817108724)" d="M2.7386127875258306,0A2.7386127875258306,2.7386127875258306,0,1,1,-2.7386127875258306,0A2.7386127875258306,2.7386127875258306,0,1,1,2.7386127875258306,0" fill="#4c78a8" stroke-width="2" opacity="1"/><path aria-label="time/steps: 4096000; legend_value: 4659.96387682; legend_name: collector/env_reward_mean; Timestep: 4096000; Y value: 4659.96387682" role="graphics-symbol" aria-roledescription="circle" transform="translate(372.3636363636363,61.84782106963248)" d="M2.7386127875258306,0A2.7386127875258306,2.7386127875258306,0,1,1,-2.7386127875258306,0A2.7386127875258306,2.7386127875258306,0,1,1,2.7386127875258306,0" fill="#4c78a8" stroke-width="2" opacity="1"/><path aria-label="time/steps: 4128768; legend_value: 4844.08613185; legend_name: collector/env_reward_mean; Timestep: 4128768; Y value: 4844.08613185" role="graphics-symbol" aria-roledescription="circle" transform="translate(375.3425454545454,53.34987083774829)" d="M2.7386127875258306,0A2.7386127875258306,2.7386127875258306,0,1,1,-2.7386127875258306,0A2.7386127875258306,2.7386127875258306,0,1,1,2.7386127875258306,0" fill="#4c78a8" stroke-width="2" opacity="1"/><path aria-label="time/steps: 4161536; legend_value: 5013.10535855; legend_name: collector/env_reward_mean; Timestep: 4161536; Y value: 5013.10535855" role="graphics-symbol" aria-roledescription="circle" transform="translate(378.32145454545457,45.548983451647615)" d="M2.7386127875258306,0A2.7386127875258306,2.7386127875258306,0,1,1,-2.7386127875258306,0A2.7386127875258306,2.7386127875258306,0,1,1,2.7386127875258306,0" fill="#4c78a8" stroke-width="2" opacity="1"/><path aria-label="time/steps: 4194304; legend_value: 5118.49883868; legend_name: collector/env_reward_mean; Timestep: 4194304; Y value: 5118.49883868" role="graphics-symbol" aria-roledescription="circle" transform="translate(381.30036363636367,40.684668983887725)" d="M2.7386127875258306,0A2.7386127875258306,2.7386127875258306,0,1,1,-2.7386127875258306,0A2.7386127875258306,2.7386127875258306,0,1,1,2.7386127875258306,0" fill="#4c78a8" stroke-width="2" opacity="1"/><path aria-label="time/steps: 4227072; legend_value: 4614.22618639; legend_name: collector/env_reward_mean; Timestep: 4227072; Y value: 4614.22618639" role="graphics-symbol" aria-roledescription="circle" transform="translate(384.27927272727277,63.95879139731678)" d="M2.7386127875258306,0A2.7386127875258306,2.7386127875258306,0,1,1,-2.7386127875258306,0A2.7386127875258306,2.7386127875258306,0,1,1,2.7386127875258306,0" fill="#4c78a8" stroke-width="2" opacity="1"/><path aria-label="time/steps: 4259840; legend_value: 4835.29315667; legend_name: collector/env_reward_mean; Timestep: 4259840; Y value: 4835.29315667" role="graphics-symbol" aria-roledescription="circle" transform="translate(387.2581818181818,53.75570046119845)" d="M2.7386127875258306,0A2.7386127875258306,2.7386127875258306,0,1,1,-2.7386127875258306,0A2.7386127875258306,2.7386127875258306,0,1,1,2.7386127875258306,0" fill="#4c78a8" stroke-width="2" opacity="1"/><path aria-label="time/steps: 4292608; legend_value: 5109.38976061; legend_name: collector/env_reward_mean; Timestep: 4292608; Y value: 5109.38976061" role="graphics-symbol" aria-roledescription="circle" transform="translate(390.2370909090909,41.105087971835985)" d="M2.7386127875258306,0A2.7386127875258306,2.7386127875258306,0,1,1,-2.7386127875258306,0A2.7386127875258306,2.7386127875258306,0,1,1,2.7386127875258306,0" fill="#4c78a8" stroke-width="2" opacity="1"/><path aria-label="time/steps: 4325376; legend_value: 4768.59231398; legend_name: collector/env_reward_mean; Timestep: 4325376; Y value: 4768.59231398" role="graphics-symbol" aria-roledescription="circle" transform="translate(393.216,56.834200893304285)" d="M2.7386127875258306,0A2.7386127875258306,2.7386127875258306,0,1,1,-2.7386127875258306,0A2.7386127875258306,2.7386127875258306,0,1,1,2.7386127875258306,0" fill="#4c78a8" stroke-width="2" opacity="1"/><path aria-label="time/steps: 4358144; legend_value: 4683.66234665; legend_name: collector/env_reward_mean; Timestep: 4358144; Y value: 4683.66234665" role="graphics-symbol" aria-roledescription="circle" transform="translate(396.1949090909091,60.754045539269086)" d="M2.7386127875258306,0A2.7386127875258306,2.7386127875258306,0,1,1,-2.7386127875258306,0A2.7386127875258306,2.7386127875258306,0,1,1,2.7386127875258306,0" fill="#4c78a8" stroke-width="2" opacity="1"/><path aria-label="time/steps: 4390912; legend_value: 5164.87339459; legend_name: collector/env_reward_mean; Timestep: 4390912; Y value: 5164.87339459" role="graphics-symbol" aria-roledescription="circle" transform="translate(399.1738181818182,38.54430486505681)" d="M2.7386127875258306,0A2.7386127875258306,2.7386127875258306,0,1,1,-2.7386127875258306,0A2.7386127875258306,2.7386127875258306,0,1,1,2.7386127875258306,0" fill="#4c78a8" stroke-width="2" opacity="1"/><path aria-label="time/steps: 4423680; legend_value: 4874.79391403; legend_name: collector/env_reward_mean; Timestep: 4423680; Y value: 4874.79391403" role="graphics-symbol" aria-roledescription="circle" transform="translate(402.15272727272725,51.932588583139285)" d="M2.7386127875258306,0A2.7386127875258306,2.7386127875258306,0,1,1,-2.7386127875258306,0A2.7386127875258306,2.7386127875258306,0,1,1,2.7386127875258306,0" fill="#4c78a8" stroke-width="2" opacity="1"/><path aria-label="time/steps: 4456448; legend_value: 4582.51818683; legend_name: collector/env_reward_mean; Timestep: 4456448; Y value: 4582.51818683" role="graphics-symbol" aria-roledescription="circle" transform="translate(405.13163636363635,65.42223753106322)" d="M2.7386127875258306,0A2.7386127875258306,2.7386127875258306,0,1,1,-2.7386127875258306,0A2.7386127875258306,2.7386127875258306,0,1,1,2.7386127875258306,0" fill="#4c78a8" stroke-width="2" opacity="1"/><path aria-label="time/steps: 4489216; legend_value: 4949.8751028; legend_name: collector/env_reward_mean; Timestep: 4489216; Y value: 4949.8751028" role="graphics-symbol" aria-roledescription="circle" transform="translate(408.11054545454544,48.467302947874494)" d="M2.7386127875258306,0A2.7386127875258306,2.7386127875258306,0,1,1,-2.7386127875258306,0A2.7386127875258306,2.7386127875258306,0,1,1,2.7386127875258306,0" fill="#4c78a8" stroke-width="2" opacity="1"/><path aria-label="time/steps: 4521984; legend_value: 4907.13239971; legend_name: collector/env_reward_mean; Timestep: 4521984; Y value: 4907.13239971" role="graphics-symbol" aria-roledescription="circle" transform="translate(411.08945454545454,50.44004309032608)" d="M2.7386127875258306,0A2.7386127875258306,2.7386127875258306,0,1,1,-2.7386127875258306,0A2.7386127875258306,2.7386127875258306,0,1,1,2.7386127875258306,0" fill="#4c78a8" stroke-width="2" opacity="1"/><path aria-label="time/steps: 4554752; legend_value: 4966.25664586; legend_name: collector/env_reward_mean; Timestep: 4554752; Y value: 4966.25664586" role="graphics-symbol" aria-roledescription="circle" transform="translate(414.06836363636364,47.71123172969608)" d="M2.7386127875258306,0A2.7386127875258306,2.7386127875258306,0,1,1,-2.7386127875258306,0A2.7386127875258306,2.7386127875258306,0,1,1,2.7386127875258306,0" fill="#4c78a8" stroke-width="2" opacity="1"/><path aria-label="time/steps: 4587520; legend_value: 4792.98064728; legend_name: collector/env_reward_mean; Timestep: 4587520; Y value: 4792.98064728" role="graphics-symbol" aria-roledescription="circle" transform="translate(417.0472727272727,55.708585510253926)" d="M2.7386127875258306,0A2.7386127875258306,2.7386127875258306,0,1,1,-2.7386127875258306,0A2.7386127875258306,2.7386127875258306,0,1,1,2.7386127875258306,0" fill="#4c78a8" stroke-width="2" opacity="1"/><path aria-label="time/steps: 4620288; legend_value: 4952.69593331; legend_name: collector/env_reward_mean; Timestep: 4620288; Y value: 4952.69593331" role="graphics-symbol" aria-roledescription="circle" transform="translate(420.0261818181818,48.33711077008929)" d="M2.7386127875258306,0A2.7386127875258306,2.7386127875258306,0,1,1,-2.7386127875258306,0A2.7386127875258306,2.7386127875258306,0,1,1,2.7386127875258306,0" fill="#4c78a8" stroke-width="2" opacity="1"/><path aria-label="time/steps: 4653056; legend_value: 5403.82228042; legend_name: collector/env_reward_mean; Timestep: 4653056; Y value: 5403.82228042" role="graphics-symbol" aria-roledescription="circle" transform="translate(423.0050909090909,27.515894749781435)" d="M2.7386127875258306,0A2.7386127875258306,2.7386127875258306,0,1,1,-2.7386127875258306,0A2.7386127875258306,2.7386127875258306,0,1,1,2.7386127875258306,0" fill="#4c78a8" stroke-width="2" opacity="1"/><path aria-label="time/steps: 4685824; legend_value: 5221.20291574; legend_name: collector/env_reward_mean; Timestep: 4685824; Y value: 5221.20291574" role="graphics-symbol" aria-roledescription="circle" transform="translate(425.984,35.94448081215662)" d="M2.7386127875258306,0A2.7386127875258306,2.7386127875258306,0,1,1,-2.7386127875258306,0A2.7386127875258306,2.7386127875258306,0,1,1,2.7386127875258306,0" fill="#4c78a8" stroke-width="2" opacity="1"/><path aria-label="time/steps: 4718592; legend_value: 5512.22622681; legend_name: collector/env_reward_mean; Timestep: 4718592; Y value: 5512.22622681" role="graphics-symbol" aria-roledescription="circle" transform="translate(428.96290909090914,22.51263568584736)" d="M2.7386127875258306,0A2.7386127875258306,2.7386127875258306,0,1,1,-2.7386127875258306,0A2.7386127875258306,2.7386127875258306,0,1,1,2.7386127875258306,0" fill="#4c78a8" stroke-width="2" opacity="1"/><path aria-label="time/steps: 4751360; legend_value: 5563.30504653; legend_name: collector/env_reward_mean; Timestep: 4751360; Y value: 5563.30504653" role="graphics-symbol" aria-roledescription="circle" transform="translate(431.9418181818182,20.155151698600093)" d="M2.7386127875258306,0A2.7386127875258306,2.7386127875258306,0,1,1,-2.7386127875258306,0A2.7386127875258306,2.7386127875258306,0,1,1,2.7386127875258306,0" fill="#4c78a8" stroke-width="2" opacity="1"/><path aria-label="time/steps: 4784128; legend_value: 4916.04078303; legend_name: collector/env_reward_mean; Timestep: 4784128; Y value: 4916.04078303" role="graphics-symbol" aria-roledescription="circle" transform="translate(434.9207272727273,50.02888693700458)" d="M2.7386127875258306,0A2.7386127875258306,2.7386127875258306,0,1,1,-2.7386127875258306,0A2.7386127875258306,2.7386127875258306,0,1,1,2.7386127875258306,0" fill="#4c78a8" stroke-width="2" opacity="1"/><path aria-label="time/steps: 4816896; legend_value: 5027.02960205; legend_name: collector/env_reward_mean; Timestep: 4816896; Y value: 5027.02960205" role="graphics-symbol" aria-roledescription="circle" transform="translate(437.8996363636364,44.906326059194704)" d="M2.7386127875258306,0A2.7386127875258306,2.7386127875258306,0,1,1,-2.7386127875258306,0A2.7386127875258306,2.7386127875258306,0,1,1,2.7386127875258306,0" fill="#4c78a8" stroke-width="2" opacity="1"/><path aria-label="time/steps: 4849664; legend_value: 5240.79326315; legend_name: collector/env_reward_mean; Timestep: 4849664; Y value: 5240.79326315" role="graphics-symbol" aria-roledescription="circle" transform="translate(440.8785454545455,35.040310931313634)" d="M2.7386127875258306,0A2.7386127875258306,2.7386127875258306,0,1,1,-2.7386127875258306,0A2.7386127875258306,2.7386127875258306,0,1,1,2.7386127875258306,0" fill="#4c78a8" stroke-width="2" opacity="1"/><path aria-label="time/steps: 4882432; legend_value: 5157.73506673; legend_name: collector/env_reward_mean; Timestep: 4882432; Y value: 5157.73506673" role="graphics-symbol" aria-roledescription="circle" transform="translate(443.8574545454546,38.87376615084137)" d="M2.7386127875258306,0A2.7386127875258306,2.7386127875258306,0,1,1,-2.7386127875258306,0A2.7386127875258306,2.7386127875258306,0,1,1,2.7386127875258306,0" fill="#4c78a8" stroke-width="2" opacity="1"/><path aria-label="time/steps: 4915200; legend_value: 5264.2949506; legend_name: collector/env_reward_mean; Timestep: 4915200; Y value: 5264.2949506" role="graphics-symbol" aria-roledescription="circle" transform="translate(446.8363636363636,33.95561766473415)" d="M2.7386127875258306,0A2.7386127875258306,2.7386127875258306,0,1,1,-2.7386127875258306,0A2.7386127875258306,2.7386127875258306,0,1,1,2.7386127875258306,0" fill="#4c78a8" stroke-width="2" opacity="1"/><path aria-label="time/steps: 4947968; legend_value: 5278.26577846; legend_name: collector/env_reward_mean; Timestep: 4947968; Y value: 5278.26577846" role="graphics-symbol" aria-roledescription="circle" transform="translate(449.8152727272727,33.31081022493131)" d="M2.7386127875258306,0A2.7386127875258306,2.7386127875258306,0,1,1,-2.7386127875258306,0A2.7386127875258306,2.7386127875258306,0,1,1,2.7386127875258306,0" fill="#4c78a8" stroke-width="2" opacity="1"/><path aria-label="time/steps: 4980736; legend_value: 5340.06831978; legend_name: collector/env_reward_mean; Timestep: 4980736; Y value: 5340.06831978" role="graphics-symbol" aria-roledescription="circle" transform="translate(452.7941818181818,30.45838524070946)" d="M2.7386127875258306,0A2.7386127875258306,2.7386127875258306,0,1,1,-2.7386127875258306,0A2.7386127875258306,2.7386127875258306,0,1,1,2.7386127875258306,0" fill="#4c78a8" stroke-width="2" opacity="1"/><path aria-label="time/steps: 5013504; legend_value: 5231.7126034; legend_name: collector/env_reward_mean; Timestep: 5013504; Y value: 5231.7126034" role="graphics-symbol" aria-roledescription="circle" transform="translate(455.7730909090909,35.45941830458146)" d="M2.7386127875258306,0A2.7386127875258306,2.7386127875258306,0,1,1,-2.7386127875258306,0A2.7386127875258306,2.7386127875258306,0,1,1,2.7386127875258306,0" fill="#4c78a8" stroke-width="2" opacity="1"/></g><g class="mark-line role-mark layer_1_marks" role="graphics-object" aria-roledescription="line mark container"><path aria-label="time/steps: 32768; Local REGRESSION: −401.304916554" role="graphics-symbol" aria-roledescription="line mark" d="M2.978909090909091,295.4448423024906L5.957818181818182,293.19543626092343L8.936727272727273,290.92983997198854L11.915636363636365,288.6475468247994L14.894545454545455,286.34812195878067L17.873454545454546,284.0312022945998L20.852363636363638,281.6965015601568L23.83127272727273,279.3438171339975L26.81018181818182,276.9730327131566L29.78909090909091,274.58411882323935L32.768,272.1771305761363L35.74690909090909,269.75220217205185L38.725818181818184,267.30954121537377L41.704727272727276,264.8494238001062L44.68363636363636,262.37219094629535L47.66254545454546,259.8782458935809L50.64145454545454,257.3680506500943L53.62036363636364,254.842122982754L56.59927272727273,252.30103369379566L59.57818181818182,249.74540476010284L62.55709090909091,247.17590830649272L65.536,244.5932660886322L68.51490909090909,241.99825168473708L71.49381818181818,239.39169488448593L74.47272727272727,236.77448513314172L77.45163636363637,234.14757769390542L80.43054545454545,231.51200185256923L83.40945454545455,228.86887082394972L86.38836363636364,226.21938303768184L89.36727272727272,223.5648086973083L92.34618181818182,220.90643695058193L95.32509090909092,218.24543228428288L98.304,215.58249787934182L101.28290909090909,212.91715994251973L104.26181818181817,210.24637087082505L107.24072727272728,207.56208601742992L110.21963636363637,204.84795812575513L113.19854545454545,202.0777135198908L116.17745454545454,198.83267105440987L119.15636363636364,195.5462749881835L122.13527272727273,192.22132504067372L125.11418181818182,188.8611472798204L128.0930909090909,185.4700734104778L131.072,182.053105693733L134.05090909090907,178.61491967827774L137.02981818181817,175.16049308580023L140.0087272727273,171.69503131126237L142.98763636363637,168.22366156384757L145.96654545454547,164.75143692918851L148.94545454545454,161.2834670562863L151.92436363636364,157.82313551571343L154.90327272727274,154.37297537494996L157.8821818181818,150.93589293965013L160.8610909090909,147.51623797107578L163.84,144.1203660115712L166.8189090909091,140.75549791399777L169.7978181818182,137.42877969380996L172.77672727272727,134.14622533216013L175.75563636363637,130.91331755036876L178.73454545454544,127.73598884090657L181.71345454545454,124.6198617740676L184.69236363636364,121.56987619116275L187.6712727272727,118.59007749907909L190.65018181818184,115.68470709169011L193.6290909090909,112.85766290171173L196.608,110.11281064282744L199.5869090909091,107.45350111294665L202.56581818181817,104.88184396993645L205.54472727272727,102.39825024707989L208.52363636363634,100.00301398113811L211.50254545454544,97.69619577347933L214.48145454545457,95.47773514764395L217.46036363636364,93.34799716376571L220.43927272727274,91.30697341293286L223.4181818181818,89.35322688504202L226.3970909090909,87.4846290970212L229.376,85.6986384931883L232.35490909090908,83.9927534234597L235.33381818181817,82.3644753921357L238.31272727272727,80.81113741694023L241.29163636363637,79.33014025179936L244.27054545454547,77.91891455443961L247.24945454545454,76.57476225436424L250.22836363636364,75.2953176046677L253.20727272727274,74.07923178863015L256.1861818181818,72.92611081908137L259.1650909090909,71.83466817507545L262.144,70.8022165703865L265.12290909090905,69.82721976153142L268.10181818181815,68.90956925710596L271.08072727272724,68.04894578458374L274.05963636363634,67.24451231718756L277.0385454545455,66.49555145901576L280.0174545454546,65.80053502779049L282.99636363636364,65.15629789574619L285.97527272727274,64.55824519689303L288.95418181818184,64.00112995380954L291.93309090909094,63.47763987267396L294.91200000000003,62.98036620378738L297.8909090909091,62.50280339821364L300.8698181818182,62.03958076278339L303.8487272727273,61.586047349559124L306.8276363636364,61.13919170617912L309.80654545454547,60.69798737251417L312.7854545454545,60.263840284368065L315.7643636363636,59.83895027700168L318.7432727272727,59.42552076936275L321.7221818181818,59.02510273311218L324.7010909090909,58.63862104313111L327.68,58.26701159184324L330.6589090909091,57.91052623273204L333.6378181818182,57.56849201656213L336.6167272727273,57.24004016972067L339.5956363636364,56.92365103114847L342.57454545454544,56.61695727769674L345.55345454545454,56.316851331739535L348.53236363636364,55.90603469479255L351.51127272727274,55.46993862643369L354.49018181818184,55.019352633740404L357.4690909090909,54.561514952502336L360.448,54.10043663383682L363.4269090909091,53.63797360476218L366.4058181818182,53.174760790308085L369.3847272727273,52.71081592249516L372.3636363636363,52.24583906261603L375.3425454545454,51.77940693642344L378.32145454545457,51.31106984979963L381.30036363636367,50.84042408562778L384.27927272727277,50.36715335472988L387.2581818181818,49.891015175560185L390.2370909090909,49.41176060961582L393.216,48.929158535105046L396.1949090909091,48.44302600884526L399.1738181818182,47.95317454379272L402.15272727272725,47.459403157023495L405.13163636363635,46.96155131667814L408.11054545454544,46.45945710348251L411.08945454545454,45.95292206346676L414.06836363636364,45.441747232587474L417.0472727272727,44.92573711384594L420.0261818181818,44.40469718566313L423.0050909090909,43.87841395916846L425.984,43.346685662383365L428.96290909090914,42.809382079656885L431.9418181818182,42.26643971460761L434.9207272727273,41.71788644275232L437.8996363636364,41.16382549526902L440.8785454545455,40.604343584907745L443.8574545454546,40.0395122721668L446.8363636363636,39.46942265463896L449.8152727272727,38.894180032597035L452.7941818181818,38.313915860280915L455.7730909090909,37.72879335012319" stroke="red" stroke-width="2" opacity="1"/></g><g class="mark-group role-legend" role="graphics-symbol" aria-roledescription="legend" aria-label="Symbol legend titled 'legend_name' for fill color with 1 value: collector/env_reward_mean"><g transform="translate(518,0)"><path class="background" aria-hidden="true" d="M0,0h139v27h-139Z" pointer-events="none"/><g><g class="mark-group role-legend-entry"><g transform="translate(0,16)"><path class="background" aria-hidden="true" d="M0,0h0v0h0Z" pointer-events="none"/><g><g class="mark-group role-scope" role="graphics-object" aria-roledescription="group mark container"><g transform="translate(0,0)"><path class="background" aria-hidden="true" d="M0,0h138.841796875v11h-138.841796875Z" pointer-events="none" opacity="1"/><g><g class="mark-symbol role-legend-symbol" pointer-events="none"><path transform="translate(6,6)" d="M5,0A5,5,0,1,1,-5,0A5,5,0,1,1,5,0" fill="#4c78a8" stroke-width="1.5" opacity="1"/></g><g class="mark-text role-legend-label" pointer-events="none"><text text-anchor="start" transform="translate(16,9)" font-family="sans-serif" font-size="10px" fill="#000" opacity="1">collector/env_reward_mean</text></g></g><path class="foreground" aria-hidden="true" d="" pointer-events="none" display="none"/></g></g></g><path class="foreground" aria-hidden="true" d="" pointer-events="none" display="none"/></g></g><g class="mark-text role-legend-title" pointer-events="none"><text text-anchor="start" transform="translate(0,9)" font-family="sans-serif" font-size="11px" font-weight="bold" fill="#000" opacity="1">legend_name</text></g></g><path class="foreground" aria-hidden="true" d="" pointer-events="none" display="none"/></g></g><g class="mark-group role-title"><g transform="translate(250,-29)"><path class="background" aria-hidden="true" d="M0,0h0v0h0Z" pointer-events="none"/><g><g class="mark-text role-title-text" role="graphics-symbol" aria-roledescription="title" aria-label="Title text 'Walker2d-v4 / PPO'" pointer-events="none"><text text-anchor="middle" transform="translate(0,16)" font-family="sans-serif" font-size="20px" font-weight="300" fill="#000" opacity="1">Walker2d-v4 / PPO</text></g></g><path class="foreground" aria-hidden="true" d="" pointer-events="none" display="none"/></g></g></g><path class="foreground" aria-hidden="true" d="" display="none"/></g></g></g></svg>